<svg width="22" height="19" viewBox="0 0 22 19" fill="none" xmlns="http://www.w3.org/2000/svg">
<path d="M21.7008 15.6359L17.4165 12.1145C17.2231 11.9556 16.961 11.8673 16.686 11.8673H15.9855C17.1716 10.6205 17.8763 9.05235 17.8763 7.34643C17.8763 3.28823 13.8756 0 8.93815 0C4.00068 0 0 3.28823 0 7.34643C0 11.4046 4.00068 14.6929 8.93815 14.6929C11.0137 14.6929 12.9216 14.1136 14.4386 13.1388V13.7145C14.4386 13.9406 14.546 14.156 14.7394 14.3149L19.0237 17.8363C19.4276 18.1683 20.0808 18.1683 20.4804 17.8363L21.6965 16.8367C22.1004 16.5047 22.1004 15.9679 21.7008 15.6359ZM8.93815 11.8673C5.90004 11.8673 3.43775 9.84704 3.43775 7.34643C3.43775 4.84935 5.89574 2.82555 8.93815 2.82555C11.9763 2.82555 14.4386 4.84582 14.4386 7.34643C14.4386 9.84351 11.9806 11.8673 8.93815 11.8673Z" fill="#333333"/>
</svg>
